<svg width="130" height="130" viewBox="0 0 130 130" fill="none" xmlns="http://www.w3.org/2000/svg">
<rect width="130" height="130" fill="#EBEBEB"/>
<path d="M92.7013 89.9603C92.519 90.2789 92.2518 90.5437 91.9281 90.7266C91.6043 90.9096 91.2358 91.004 90.8616 90.9999H39.1384C38.7642 91.004 38.3957 90.9096 38.0719 90.7266C37.7482 90.5437 37.481 90.2789 37.2987 89.9603C37.1033 89.647 37 89.2874 37 88.9208C37 88.5541 37.1033 88.1945 37.2987 87.8812C41.2786 81.1982 47.649 76.1824 55.1886 73.7952C51.5747 71.7004 48.7663 68.507 47.1948 64.7055C45.6234 60.9039 45.3759 56.7046 46.4902 52.7527C47.6046 48.8007 50.0192 45.3147 53.3632 42.8302C56.7071 40.3456 60.7954 39 65 39C69.2046 39 73.2929 40.3456 76.6368 42.8302C79.9808 45.3147 82.3954 48.8007 83.5098 52.7527C84.6241 56.7046 84.3766 60.9039 82.8052 64.7055C81.2337 68.507 78.4253 71.7004 74.8114 73.7952C82.351 76.1824 88.7214 81.1982 92.7013 87.8812C92.8967 88.1945 93 88.5541 93 88.9208C93 89.2874 92.8967 89.647 92.7013 89.9603Z" fill="#BEBEBE"/>
</svg>
